HIERARCHY
ROOT root
{
	OFFSET	0.000000	0.000000	0.000000
	CHANNELS 6 Xposition Yposition Zposition Zrotation Yrotation Xrotation
	JOINT lhipjoint
	{
		OFFSET	0.000000	0.000000	0.000000
		CHANNELS 3 Zrotation Yrotation Xrotation
		JOINT lfemur
		{
			OFFSET	1.656736	-1.802822	0.624766
			CHANNELS 3 Zrotation Yrotation Xrotation
			JOINT ltibia
			{
				OFFSET	2.597200	-7.135754	0.000000
				CHANNELS 3 Zrotation Yrotation Xrotation
				JOINT lfoot
				{
					OFFSET	2.492357	-6.847701	0.000000
					CHANNELS 3 Zrotation Yrotation Xrotation
					JOINT ltoes
					{
						OFFSET	0.197038	-0.541357	2.145811
						CHANNELS 3 Zrotation Yrotation Xrotation
						End Site
						{
							OFFSET	0.000000	-0.000000	1.112490
						}
					}
				}
			}
		}
	}
	JOINT rhipjoint
	{
		OFFSET	0.000000	0.000000	0.000000
		CHANNELS 3 Zrotation Yrotation Xrotation
		JOINT rfemur
		{
			OFFSET	-1.610701	-1.802823	0.624765
			CHANNELS 3 Zrotation Yrotation Xrotation
			JOINT rtibia
			{
				OFFSET	-2.595021	-7.129768	0.000000
				CHANNELS 3 Zrotation Yrotation Xrotation
				JOINT rfoot
				{
					OFFSET	-2.467804	-6.780241	0.000000
					CHANNELS 3 Zrotation Yrotation Xrotation
					JOINT rtoes
					{
						OFFSET	-0.230239	-0.632577	2.133676
						CHANNELS 3 Zrotation Yrotation Xrotation
						End Site
						{
							OFFSET	-0.000000	-0.000000	1.115690
						}
					}
				}
			}
		}
	}
	JOINT lowerback
	{
		OFFSET	0.000000	0.000000	0.000000
		CHANNELS 3 Zrotation Yrotation Xrotation
		JOINT upperback
		{
			OFFSET	0.019612	2.054496	-0.141116
			CHANNELS 3 Zrotation Yrotation Xrotation
			JOINT thorax
			{
				OFFSET	0.010210	2.064356	-0.059210
				CHANNELS 3 Zrotation Yrotation Xrotation
				JOINT lowerneck
				{
					OFFSET	0.001509	2.068054	0.008037
					CHANNELS 3 Zrotation Yrotation Xrotation
					JOINT upperneck
					{
						OFFSET	0.007130	1.567112	0.149683
						CHANNELS 3 Zrotation Yrotation Xrotation
						JOINT head
						{
							OFFSET	0.034286	1.560409	-0.100058
							CHANNELS 3 Zrotation Yrotation Xrotation
							End Site
							{
								OFFSET	0.013051	1.625595	-0.052648
							}
						}
					}
				}
				JOINT lclavicle
				{
					OFFSET	0.001509	2.068054	0.008037
					CHANNELS 3 Zrotation Yrotation Xrotation
					JOINT lhumerus
					{
						OFFSET	3.542050	0.904362	-0.173638
						CHANNELS 3 Zrotation Yrotation Xrotation
						JOINT lradius
						{
							OFFSET	4.865130	-0.000000	-0.000000
							CHANNELS 3 Zrotation Yrotation Xrotation
							JOINT lwrist
							{
								OFFSET	3.355540	-0.000000	0.000000
								CHANNELS 3 Zrotation Yrotation Xrotation
								JOINT lhand
								{
									OFFSET	1.677770	-0.000000	0.000000
									CHANNELS 3 Zrotation Yrotation Xrotation
									JOINT lfingers
									{
										OFFSET	0.661175	-0.000000	0.000000
										CHANNELS 3 Zrotation Yrotation Xrotation
										End Site
										{
											OFFSET	0.533057	-0.000000	0.000000
										}
									}
								}
								JOINT lthumb
								{
									OFFSET	1.677770	-0.000000	0.000000
									CHANNELS 3 Zrotation Yrotation Xrotation
									End Site
									{
										OFFSET	0.541196	-0.000000	0.541196
									}
								}
							}
						}
					}
				}
				JOINT rclavicle
				{
					OFFSET	0.001509	2.068054	0.008037
					CHANNELS 3 Zrotation Yrotation Xrotation
					JOINT rhumerus
					{
						OFFSET	-3.498016	0.759940	-0.326156
						CHANNELS 3 Zrotation Yrotation Xrotation
						JOINT rradius
						{
							OFFSET	-5.026490	-0.000000	0.000000
							CHANNELS 3 Zrotation Yrotation Xrotation
							JOINT rwrist
							{
								OFFSET	-3.364310	-0.000000	0.000000
								CHANNELS 3 Zrotation Yrotation Xrotation
								JOINT rhand
								{
									OFFSET	-1.682160	-0.000000	0.000000
									CHANNELS 3 Zrotation Yrotation Xrotation
									JOINT rfingers
									{
										OFFSET	-0.730406	-0.000000	0.000000
										CHANNELS 3 Zrotation Yrotation Xrotation
										End Site
										{
											OFFSET	-0.588872	-0.000000	0.000000
										}
									}
								}
								JOINT rthumb
								{
									OFFSET	-1.682160	-0.000000	0.000000
									CHANNELS 3 Zrotation Yrotation Xrotation
									End Site
									{
										OFFSET	-0.597863	-0.000000	0.597863
									}
								}
							}
						}
					}
				}
			}
		}
	}
}
MOTION
Frames:	12
Frame Time:	0.008333
	10.981400	17.555000	0.586341	-0.843359	1.769770	18.051701	0.000000	0.000000	0.000000	-17.263506	-12.957953	-40.836926	6.238207	14.655281	45.930416	0.217024	5.177536	-12.224397	0.018435	-0.876624	-2.409405	0.000000	0.000000	0.000000	13.972510	20.287085	-39.696041	-6.340663	-14.750538	46.334080	-0.239783	-5.675551	-13.060646	-0.020658	0.927895	-2.550437	-0.883082	-1.017230	27.141703	0.075507	-1.541900	3.961210	1.137870	-0.672917	-10.611099	-0.567879	-0.516066	-17.795904	0.198169	-0.627379	-19.731100	0.149149	-0.288365	-3.572480	-0.567879	-0.000000	0.000000	-84.329529	5.315365	23.780025	22.136988	-33.131504	-6.660558	0.000000	0.000000	-16.976599	26.241718	14.312547	6.948190	-7.125019	0.000000	0.000000	-1.173539	45.854630	-0.024761	-0.567879	-0.000000	0.000000	84.707726	-9.235183	29.625561	-24.538387	35.728428	-8.018793	0.000000	0.000000	-25.563591	-35.158020	19.837959	-13.442675	7.125019	0.000000	0.000000	-4.276760	-6.224997	-3.798652
	10.977000	17.652000	0.607529	-0.836058	1.820100	17.908201	0.000000	0.000000	0.000000	-17.440447	-12.714073	-39.699219	5.788435	14.220140	44.126617	0.152210	5.496735	-11.373275	0.015447	-0.802444	-2.205389	0.000000	0.000000	0.000000	14.322898	19.722206	-38.698166	-5.940648	-14.370580	44.743057	-0.169843	-5.906167	-12.111369	-0.004508	0.433576	-1.191342	-0.942509	-1.021840	26.639004	0.147479	-1.552880	3.944030	1.245530	-0.677886	-10.366298	-0.602680	-0.396497	-18.121700	0.084956	-0.466841	-19.137600	0.118635	-0.203715	-3.302910	-0.602680	-0.000000	0.000000	-84.676682	5.776355	22.425161	22.268614	-33.279266	-6.732645	-0.000000	0.000002	-17.524899	25.994133	14.536765	6.977709	-7.125019	0.000000	0.000000	-1.439006	46.066761	-0.037897	-0.602680	-0.000000	0.000000	84.423553	-9.589850	29.317884	-24.517448	35.706676	-8.006569	0.000000	0.000000	-25.722498	-35.270329	19.432486	-13.241014	7.125019	0.000000	0.000000	-4.415126	-6.668007	-3.884431
	10.964700	17.738300	0.621741	-0.943398	1.963650	17.766100	0.000000	0.000000	0.000000	-17.369900	-12.616713	-38.643288	5.372837	13.791750	42.409565	0.095267	5.803318	-10.576448	0.010121	-0.649647	-1.785258	0.000000	0.000000	0.000000	14.849424	19.216824	-37.697517	-5.562539	-13.990584	43.199718	-0.102743	-6.253325	-11.238690	-0.001776	0.272053	-0.747489	-0.874160	-1.031960	26.300400	0.223888	-1.536750	3.840350	1.280110	-0.672292	-10.308299	-0.510244	-0.385411	-18.280701	-0.102677	-0.482993	-18.680502	0.039458	-0.215536	-3.111900	-0.510244	0.000000	0.000000	-84.700401	6.256413	21.655376	22.195072	-33.196785	-6.692338	0.000000	0.000000	-18.221899	26.433073	14.559267	7.123200	-7.125019	0.000000	0.000000	-1.028277	46.151722	-0.029230	-0.510244	0.000000	0.000000	84.232941	-9.977907	29.118176	-24.399338	35.583702	-7.937739	0.000000	-0.000002	-25.803095	-35.660038	19.771780	-13.642861	7.125019	0.000000	0.000000	-4.601320	-6.178710	-4.092890
	10.953200	17.819201	0.636179	-0.835097	2.081700	17.535299	0.000000	0.000000	0.000000	-17.616495	-12.443049	-37.490742	4.995792	13.379054	40.804501	0.053035	6.065731	-9.969879	0.002779	-0.340426	-0.935364	0.000000	0.000000	0.000000	15.218792	18.543854	-36.582600	-5.198808	-13.604243	41.674667	-0.040281	-6.543483	-10.288366	-0.018651	0.881718	-2.423408	-0.903259	-1.020320	26.156200	0.193684	-1.534070	3.662111	1.261770	-0.668575	-10.435800	-0.630237	-0.557574	-18.235600	0.045890	-0.677014	-18.204702	0.102317	-0.308382	-2.945030	-0.630237	0.000000	0.000000	-84.552101	6.922974	21.194613	22.031607	-33.012733	-6.603058	-0.000000	0.000002	-18.704992	26.837578	14.200202	7.075219	-7.125019	0.000000	0.000000	-0.597546	45.811569	-0.011973	-0.630237	0.000000	0.000000	84.188271	-10.497502	28.637577	-24.111784	35.282246	-7.771028	-0.000000	0.000002	-25.441191	-35.225861	19.922215	-13.528176	7.125019	0.000000	0.000000	-4.304821	-6.110927	-3.833184
	10.945400	17.906601	0.658469	-0.854093	2.188960	17.181398	0.000000	0.000000	0.000000	-17.838934	-11.979272	-36.255402	4.647851	12.975904	39.278332	0.018222	6.185518	-9.296459	0.003199	-0.365205	-1.003457	0.000000	0.000000	0.000000	15.623973	17.992273	-35.349655	-4.853520	-13.216915	40.185982	0.009192	-6.758205	-9.411269	-0.025434	1.029565	-2.830163	-0.802161	-1.045850	25.932899	0.169968	-1.540490	3.659600	1.174050	-0.677556	-10.325299	-0.560623	-0.526557	-18.521902	0.027056	-0.641374	-17.605900	0.083229	-0.295201	-2.688230	-0.560623	0.000000	0.000000	-84.503998	7.457556	20.496984	21.999620	-32.976593	-6.585637	-0.000000	0.000002	-18.951288	26.837864	13.961038	6.959686	-7.125019	0.000000	0.000000	-0.565914	45.547684	-0.007647	-0.560623	0.000000	0.000000	84.239586	-10.676077	28.155935	-23.719421	34.866138	-7.545558	0.000000	-0.000002	-24.976990	-34.870647	19.645103	-13.185207	7.125019	0.000000	0.000000	-4.129253	-6.517374	-3.643582
	10.941500	17.987200	0.676640	-0.990332	2.283460	16.972700	0.000000	0.000000	0.000000	-17.900557	-11.506252	-35.275078	4.327743	12.584210	37.831333	-0.024820	6.340937	-8.362275	0.007905	-0.574105	-1.577592	0.000000	0.000000	0.000000	15.893570	17.781687	-34.340256	-4.526714	-12.830129	38.735859	0.034736	-6.859076	-8.890371	-0.004250	0.420861	-1.156406	-0.553347	-1.074180	25.592100	0.182256	-1.506690	3.641300	1.025830	-0.673156	-10.174801	-0.446047	-0.426120	-18.708300	-0.142140	-0.535773	-17.227098	0.011210	-0.246943	-2.527710	-0.446047	0.000000	0.000000	-84.513016	7.873454	19.826004	21.965611	-32.938133	-6.567133	-0.000000	0.000002	-19.128195	27.236021	13.579453	6.891017	-7.125019	0.000000	0.000000	-0.145810	45.178200	-0.000642	-0.446047	0.000000	0.000000	84.351761	-10.831433	27.707617	-23.455919	34.583591	-7.395456	0.000000	0.000000	-24.601496	-35.181473	19.454065	-13.212623	7.125019	0.000000	0.000000	-4.355841	-6.664325	-3.832269
	10.937700	18.057699	0.690516	-0.758458	2.215650	16.955601	0.000000	0.000000	0.000000	-18.299240	-11.232762	-34.448231	4.025568	12.194353	36.423016	-0.069108	6.619808	-7.421644	0.015275	-0.797966	-2.193072	0.000000	0.000000	0.000000	15.612052	17.702864	-33.587654	-4.216225	-12.442712	37.316647	0.049791	-6.848428	-8.443877	-0.001746	-0.269815	0.741341	-0.770123	-1.024950	25.135201	0.147036	-1.505680	3.444680	1.103640	-0.665718	-10.152500	-0.573700	-0.408130	-18.437500	-0.073129	-0.482687	-16.998600	0.056733	-0.213182	-2.487010	-0.573700	-0.000000	0.000000	-84.625717	8.458640	19.074358	21.900564	-32.864471	-6.531804	0.000000	-0.000002	-19.056198	27.972149	13.302875	6.967129	-7.125019	0.000000	0.000000	0.573024	44.966599	-0.000470	-0.573700	-0.000000	0.000000	84.245956	-11.362180	27.359261	-23.459972	34.587967	-7.397757	0.000000	-0.000002	-24.783691	-35.380829	19.694927	-13.459551	7.125019	0.000000	0.000000	-4.440105	-6.336590	-3.935050
	10.923700	18.121799	0.704689	-0.874848	2.130510	16.804798	0.000000	0.000000	0.000000	-18.293133	-10.816447	-33.568317	3.732749	11.796022	35.014156	-0.100654	6.831456	-6.635855	0.041521	-1.315148	-3.616374	0.000000	0.000000	0.000000	15.918974	17.578634	-32.676468	-3.933267	-12.071070	35.983852	0.080468	-6.962970	-7.672135	-0.000014	0.024292	-0.066741	-0.873922	-0.952414	24.669901	0.247844	-1.427080	3.341920	1.240960	-0.625185	-10.019300	-0.975724	-0.460562	-18.256800	0.383535	-0.444348	-16.736902	0.272386	-0.175402	-2.420760	-0.975724	0.000000	-0.000000	-84.812073	8.882857	18.092987	21.833794	-32.788673	-6.495605	-0.000000	0.000002	-18.594288	28.392986	13.899807	7.398528	-7.125019	0.000000	0.000000	0.904168	45.689720	0.015391	-0.975724	0.000000	-0.000000	84.019608	-11.758970	27.074972	-23.478794	34.608215	-7.408445	0.000000	-0.000002	-25.094898	-35.237225	19.730328	-13.413078	7.125019	0.000000	0.000000	-4.344365	-6.330431	-3.850203
	10.912900	18.184401	0.725673	-1.164150	2.234270	16.395498	0.000000	0.000000	0.000000	-18.146122	-10.340077	-32.419460	3.456636	11.399924	33.640816	-0.116614	6.889831	-6.041564	0.080582	-1.831112	-5.039145	0.000000	0.000000	0.000000	16.573128	17.165319	-31.516474	-3.685780	-11.730103	34.783752	0.103888	-6.991951	-6.857208	-0.013940	0.762334	-2.095087	-0.636805	-0.969924	24.231100	0.341612	-1.375300	3.447510	1.180800	-0.612574	-9.673339	-1.207200	-0.531716	-17.774401	0.702631	-0.478110	-16.966900	0.415480	-0.182034	-2.572110	-1.207200	-0.000000	0.000000	-84.757607	9.054309	17.437170	21.693460	-32.628857	-6.419775	0.000000	0.000000	-18.242092	28.686529	14.261614	7.677041	-7.125019	0.000000	0.000000	1.142916	46.135391	0.032035	-1.207200	-0.000000	0.000000	83.969719	-11.816719	26.795898	-23.286480	34.400589	-7.299509	0.000000	0.000000	-24.713091	-35.045395	19.360529	-13.089723	7.125019	0.000000	0.000000	-4.286029	-6.805259	-3.758754
	10.913400	18.244600	0.751614	-0.863994	2.270720	15.990800	0.000000	0.000000	0.000000	-18.664928	-10.105989	-31.159094	3.212788	11.031796	32.387188	-0.132585	7.031140	-5.572407	0.094743	-1.985093	-5.464457	0.000000	0.000000	0.000000	16.470989	16.595709	-30.399536	-3.455303	-11.397959	33.634068	0.111775	-6.875040	-6.239635	-0.009129	0.616971	-1.695425	-0.775421	-1.005640	24.062899	0.226660	-1.469840	3.302210	1.161480	-0.653051	-9.744889	-1.311080	-0.518092	-16.689705	0.764720	-0.451409	-17.328897	0.458560	-0.163662	-2.865100	-1.311080	0.000000	-0.000000	-84.559242	9.844656	17.154852	21.585543	-32.505451	-6.361683	0.000000	-0.000002	-18.038698	28.853222	13.903380	7.541468	-7.125019	0.000000	0.000000	1.338406	45.756901	0.025000	-1.311080	0.000000	-0.000000	83.899239	-12.279954	26.721096	-23.100014	34.197994	-7.194429	-0.000000	0.000002	-24.476093	-34.794193	19.377028	-12.982439	7.125019	0.000000	0.000000	-4.125472	-6.845544	-3.613949
	10.906900	18.285900	0.763148	-0.775542	2.223940	15.732601	0.000000	0.000000	0.000000	-18.868595	-9.886165	-30.247219	3.000428	10.695745	31.260498	-0.154664	7.324034	-5.127727	0.086301	-1.894808	-5.215042	0.000000	0.000000	0.000000	16.582935	16.310070	-29.415297	-3.229100	-11.057000	32.472347	0.126357	-6.966845	-5.738533	-0.003899	0.403152	-1.107737	-0.844912	-1.027720	23.980600	0.169736	-1.525360	2.985280	1.159200	-0.673493	-10.055799	-1.301960	-0.487226	-16.344301	0.738377	-0.418779	-16.857698	0.447866	-0.149256	-2.751660	-1.301960	-0.000000	0.000000	-84.334785	10.816056	16.934191	21.445683	-32.344883	-6.286693	-0.000000	0.000002	-18.062794	28.705374	13.359742	7.211441	-7.125019	0.000000	0.000000	1.253223	45.126667	0.003911	-1.301960	-0.000000	0.000000	83.768188	-12.989892	26.853870	-23.122829	34.222858	-7.207256	-0.000000	0.000002	-24.692993	-34.863972	19.740414	-13.241308	7.125019	0.000000	0.000000	-4.109211	-6.408821	-3.634439
	10.893500	18.326700	0.771153	-1.121780	2.440300	15.364396	0.000000	0.000000	0.000000	-18.526804	-9.692101	-29.287125	2.811525	10.383512	30.227802	-0.169599	7.539860	-4.850765	0.065066	-1.645766	-4.527660	0.000000	0.000000	0.000000	17.257715	16.107401	-28.294413	-3.015907	-10.720761	31.343813	0.149055	-7.308720	-5.451680	-0.004697	0.442533	-1.215964	-0.430966	-1.094950	23.469997	0.235730	-1.497110	3.133740	0.971814	-0.679989	-9.626901	-0.836693	-0.547907	-17.194901	0.435663	-0.587904	-16.069599	0.262012	-0.258088	-2.346560	-0.836693	-0.000000	0.000000	-84.018044	10.681744	16.741379	21.104893	-31.950586	-6.105352	0.000000	0.000000	-18.042898	28.261393	12.867353	6.826685	-7.125019	0.000000	0.000000	0.886615	44.517056	-0.010565	-0.836693	-0.000000	0.000000	83.795876	-12.974313	26.721565	-23.146677	34.248817	-7.220674	-0.000000	0.000002	-24.640598	-35.340275	19.642679	-13.407102	7.125019	0.000000	0.000000	-4.423577	-6.407104	-3.914280
